HIERARCHY
ROOT Torso
{
	OFFSET 0.000000 0.000000 0.000000
	CHANNELS 6 Xposition Yposition Zposition Xrotation Yrotation Zrotation 
	JOINT LHip
	{
		OFFSET 0.000000 0.000000 0.000000
		CHANNELS 3 Xrotation Yrotation Zrotation
		JOINT LThigh
		{
			OFFSET 0.055000 -0.055000 -0.010000
			CHANNELS 3 Xrotation Yrotation Zrotation
			JOINT LLeg
			{
				OFFSET 0.000000 -0.160000 0.015000
				CHANNELS 3 Xrotation Yrotation Zrotation
				JOINT LFoot
				{
					OFFSET 0.000000 -0.160000 -0.010000
					CHANNELS 3 Xrotation Yrotation Zrotation
					JOINT LToes
					{
						OFFSET 0.000000 0.000000 0.090000
						CHANNELS 3 Xrotation Yrotation Zrotation
						End Site
						{
							OFFSET 0.000000 0.000000 0.000000
						}
					}
				}
			}
		}
	}
	JOINT RHip
	{
		OFFSET 0.000000 0.000000 0.000000
		CHANNELS 3 Xrotation Yrotation Zrotation
		JOINT RThigh
		{
			OFFSET -0.055000 -0.055000 -0.010000
			CHANNELS 3 Xrotation Yrotation Zrotation
			JOINT RLeg
			{
				OFFSET 0.000000 -0.160000 0.015000
				CHANNELS 3 Xrotation Yrotation Zrotation
				JOINT RFoot
				{
					OFFSET 0.000000 -0.160000 -0.010000
					CHANNELS 3 Xrotation Yrotation Zrotation
					JOINT RToes
					{
						OFFSET 0.000000 0.000000 0.090000
						CHANNELS 3 Xrotation Yrotation Zrotation
						End Site
						{
							OFFSET 0.000000 0.000000 0.000000
						}
					}
				}
			}
		}
	}
	JOINT Neck
	{
		OFFSET 0.000000 0.135000 0.000000
		CHANNELS 3 Xrotation Yrotation Zrotation
		JOINT Head
		{
			OFFSET 0.000000 0.075000 0.000000
			CHANNELS 3 Xrotation Yrotation Zrotation
			End Site
			{
				OFFSET 0.000000 0.000000 0.000000
			}
		}
	}
	JOINT LUpperarm
	{
		OFFSET 0.098000 0.150000 0.000000
		CHANNELS 3 Xrotation Yrotation Zrotation
		JOINT LLowerarm
		{
			OFFSET 0.000000 0.009000 0.090000
			CHANNELS 3 Xrotation Yrotation Zrotation
			JOINT LHand
			{
				OFFSET 0.000000 0.000000 0.105000
				CHANNELS 3 Xrotation Yrotation Zrotation
				End Site
				{
					OFFSET 0.000000 0.000000 0.000000
				}
			}
		}
	}
	JOINT RUpperarm
	{
		OFFSET -0.098000 0.150000 0.000000
		CHANNELS 3 Xrotation Yrotation Zrotation
		JOINT RLowerarm
		{
			OFFSET 0.000000 0.009000 0.090000
			CHANNELS 3 Xrotation Yrotation Zrotation
			JOINT RHand
			{
				OFFSET 0.000000 0.000000 0.105000
				CHANNELS 3 Xrotation Yrotation Zrotation
				End Site
				{
					OFFSET 0.000000 0.000000 0.000000
				}
			}
		}
	}
}
MOTION
Frames: 11
Frame Time: 0.040000
0.000000 0.000000 0.000000 -4.434196 -0.220663 -0.768469 -0.019056 -0.615300 5.551610 2.401869 1.544262 8.461307 3.599299 0.924956 4.047425 3.584387 1.034271 -0.110114 0.000000 0.000000 0.000000 -0.279565 0.728835 -4.049329 2.510315 -1.584420 -8.264439 2.801392 -0.904116 -3.935444 4.309680 -1.000391 0.127118 0.000000 0.000000 0.000000 0.515505 -0.000881 -0.128652 0.000000 0.000000 0.000000 99.497232 82.381182 -99.497241 0.941402 0.397845 -0.006379 0.000000 0.000000 0.000000 99.706683 -81.935259 99.706694 1.097796 0.581656 -0.028646 0.000000 0.000000 0.000000 
0.000000 0.000000 0.000000 -4.313380 -0.374379 -0.757697 0.623940 -1.266097 5.696864 2.650536 0.425174 8.412067 16.543771 0.790887 4.029552 3.346435 0.956586 -0.098595 0.000000 0.000000 0.000000 -0.377345 0.772096 -4.053215 2.442070 -1.573570 -8.270019 2.784522 -0.894871 -3.935904 4.313307 -0.991070 0.126399 0.000000 0.000000 0.000000 0.487198 -0.000889 -0.136689 0.000000 0.000000 0.000000 101.258617 82.310687 -101.258631 0.945537 0.486915 -0.007538 0.000000 0.000000 0.000000 99.877354 -81.879109 99.877352 1.131520 4.543349 -0.185995 0.000000 0.000000 0.000000 
0.000000 0.000000 0.000000 -4.189067 -0.544603 -0.735546 1.296757 -2.029947 5.896526 2.901302 -0.795989 8.214906 31.544600 0.657973 4.044819 3.032588 0.882166 -0.086440 0.000000 0.000000 0.000000 -0.480638 0.818385 -4.062383 2.370190 -1.562036 -8.280394 2.767234 -0.884678 -3.938248 4.317440 -0.980855 0.125563 0.000000 0.000000 0.000000 0.458480 -0.000891 -0.145860 0.000000 0.000000 0.000000 103.157979 82.216820 -103.158002 0.951733 0.585765 -0.008912 0.000000 0.000000 0.000000 99.880349 -81.839822 99.880334 1.182441 8.516897 -0.351710 0.000000 0.000000 0.000000 
0.000000 0.000000 0.000000 -4.119037 -0.786683 -0.691628 1.882083 -2.729806 6.099890 3.122311 -1.847441 7.915229 45.832119 0.536924 4.121641 2.732834 0.827493 -0.076812 0.000000 0.000000 0.000000 -0.571145 0.863653 -4.081255 2.308505 -1.549548 -8.298859 2.754385 -0.872325 -3.943555 4.321761 -0.968468 0.124583 0.000000 0.000000 0.000000 0.440114 -0.000915 -0.158058 0.000000 0.000000 0.000000 105.237302 82.086581 -105.237337 0.961561 0.700175 -0.010459 0.000000 0.000000 0.000000 100.760890 -81.707931 100.760837 1.383437 17.409516 -0.770876 0.000000 0.000000 0.000000 
0.000000 0.000000 0.000000 -4.069581 -1.027970 -0.627693 2.392114 -3.422475 6.333086 3.307109 -2.806219 7.552803 60.305207 0.418004 4.321155 2.458372 0.794186 -0.069737 0.000000 0.000000 0.000000 -0.650771 0.904884 -4.111127 2.254369 -1.538580 -8.325264 2.744022 -0.860607 -3.951962 4.325749 -0.956803 0.123644 0.000000 0.000000 0.000000 0.426211 -0.000947 -0.172617 0.000000 0.000000 0.000000 107.148713 81.931673 -107.148764 0.974802 0.811667 -0.012125 0.000000 0.000000 0.000000 101.545628 -81.602031 101.545524 1.722055 26.311948 -1.287452 0.000000 0.000000 0.000000 
0.000000 0.000000 0.000000 -4.035092 -1.379560 -0.495436 2.978498 -4.340157 6.714231 3.502785 -3.968733 7.025408 79.786433 0.285730 4.897585 2.172580 0.811184 -0.065784 0.000000 0.000000 0.000000 -0.746074 0.957456 -4.177125 2.188799 -1.525374 -8.379108 2.732413 -0.845202 -3.969892 4.330256 -0.941760 0.122459 0.000000 0.000000 0.000000 0.415180 -0.001025 -0.199618 0.000000 0.000000 0.000000 109.535073 81.664896 -109.535152 1.000931 0.964780 -0.014687 0.000000 0.000000 0.000000 102.796480 -81.495959 102.796260 2.660578 40.159090 -2.433557 0.000000 0.000000 0.000000 
0.000000 0.000000 0.000000 -4.278788 -1.267776 -0.513462 1.860863 -2.366105 5.871391 3.178217 -1.451170 7.896244 41.073115 0.574859 4.002253 2.844779 0.834365 -0.079360 0.000000 0.000000 0.000000 -0.586835 0.888705 -4.171100 2.296159 -1.541019 -8.365778 2.755055 -0.860248 -3.965873 4.321042 -0.957195 0.124071 0.000000 0.000000 0.000000 0.467746 -0.001108 -0.191916 0.000000 0.000000 0.000000 106.944514 81.842639 -106.944559 0.991197 0.817991 -0.011534 0.000000 0.000000 0.000000 106.409779 -81.182202 106.409231 3.941358 49.867045 -3.812508 0.000000 0.000000 0.000000 
0.000000 0.000000 0.000000 -4.381096 -1.353444 -0.437412 1.536515 -1.864236 5.674000 3.086090 -0.734711 8.036972 31.591555 0.659796 3.941281 3.047951 0.875465 -0.086071 0.000000 0.000000 0.000000 -0.548146 0.875968 -4.213164 2.320479 -1.544958 -8.393854 2.760761 -0.862373 -3.975851 4.317864 -0.959890 0.124465 0.000000 0.000000 0.000000 0.488834 -0.001200 -0.203872 0.000000 0.000000 0.000000 106.575923 81.791891 -106.575963 1.002447 0.807898 -0.011168 0.000000 0.000000 0.000000 108.320794 -81.106886 108.319911 6.083365 59.664267 -6.024564 0.000000 0.000000 0.000000 
0.000000 0.000000 0.000000 -4.487334 -1.430578 -0.343611 1.178545 -1.371440 5.493622 2.978828 0.012881 8.139528 22.207028 0.747946 3.920708 3.245953 0.926175 -0.093693 0.000000 0.000000 0.000000 -0.505118 0.860636 -4.265577 2.347069 -1.550512 -8.429031 2.766798 -0.865668 -3.988564 4.314197 -0.963900 0.124948 0.000000 0.000000 0.000000 0.511000 -0.001305 -0.217963 0.000000 0.000000 0.000000 106.087505 81.730508 -106.087541 1.016399 0.792485 -0.010788 0.000000 0.000000 0.000000 110.164993 -81.125555 110.163705 10.313021 69.403408 -10.294505 0.000000 0.000000 0.000000 
0.000000 0.000000 0.000000 -4.597259 -1.492952 -0.233676 0.789796 -0.887556 5.331814 2.856434 0.788312 8.194270 12.914407 0.842587 3.927797 3.429145 0.984946 -0.101953 0.000000 0.000000 0.000000 -0.456604 0.841959 -4.327414 2.376816 -1.557916 -8.470689 2.773412 -0.870336 -4.003873 4.310059 -0.969419 0.125523 0.000000 0.000000 0.000000 0.534205 -0.001420 -0.233603 0.000000 0.000000 0.000000 105.456019 81.661626 -105.456049 1.032660 0.769871 -0.010370 0.000000 0.000000 0.000000 111.968230 -81.254737 111.966518 21.826058 78.873653 -21.823778 0.000000 0.000000 0.000000 
0.000000 0.000000 0.000000 -4.707851 -1.515357 -0.135080 0.370993 -0.415557 5.204382 2.715540 1.585011 8.202766 3.699236 0.950526 3.957472 3.588249 1.051716 -0.110618 0.000000 0.000000 0.000000 -0.399620 0.818537 -4.383672 2.412942 -1.566667 -8.508276 2.781741 -0.876211 -4.018027 4.305915 -0.976066 0.126142 0.000000 0.000000 0.000000 0.557930 -0.001523 -0.246394 0.000000 0.000000 0.000000 104.648887 81.611146 -104.648912 1.046951 0.735266 -0.009812 0.000000 0.000000 0.000000 113.439974 -81.436973 113.437942 62.142595 84.961523 -62.142593 0.000000 0.000000 0.000000 
